<?xml version="1.0" standalone="no"?>
<!DOCTYPE svg PUBLIC "-//W3C//DTD SVG 20010904//EN"
 "http://www.w3.org/TR/2001/REC-SVG-20010904/DTD/svg10.dtd">
<svg version="1.0" xmlns="http://www.w3.org/2000/svg"
 width="2000.000000pt" height="2000.000000pt" viewBox="0 0 2000.000000 2000.000000"
 preserveAspectRatio="xMidYMid meet">
<metadata>
Created by potrace 1.11, written by Peter Selinger 2001-2013
</metadata>
<g transform="translate(0.000000,2000.000000) scale(0.100000,-0.100000)"
fill="#000000" stroke="none">
<path d="M9904 18333 c-6 -10 -98 -166 -204 -348 -286 -488 -290 -496 -318
-545 -13 -25 -28 -49 -32 -55 -6 -8 -723 -1230 -780 -1330 -9 -16 -79 -136
-155 -265 -76 -129 -208 -354 -293 -500 -85 -146 -200 -341 -255 -435 -55 -93
-137 -233 -182 -310 -45 -77 -91 -156 -102 -175 -38 -64 -196 -334 -228 -390
-18 -30 -69 -118 -115 -195 -45 -77 -93 -158 -105 -180 -13 -22 -67 -114 -120
-205 -54 -91 -121 -205 -150 -255 -29 -49 -90 -153 -135 -230 -46 -77 -82
-147 -82 -156 0 -9 20 -47 43 -85 23 -38 50 -82 59 -99 9 -16 37 -64 62 -105
25 -41 95 -158 155 -260 60 -102 177 -297 259 -435 82 -137 153 -257 157 -265
4 -8 18 -31 30 -52 12 -20 40 -67 61 -105 22 -37 54 -90 72 -118 17 -27 90
-149 161 -270 72 -121 150 -253 174 -293 24 -41 52 -88 63 -105 97 -167 286
-485 317 -534 22 -34 39 -65 39 -68 0 -2 20 -35 43 -72 24 -38 46 -73 48 -78
2 -6 64 -111 138 -235 278 -468 383 -644 570 -960 106 -179 202 -337 212 -352
10 -15 19 -29 19 -32 0 -2 46 -80 101 -173 56 -92 112 -186 124 -208 89 -155
357 -600 363 -603 4 -1 68 100 142 225 74 126 204 345 288 488 85 143 163 276
174 295 31 54 382 650 463 785 39 66 97 163 127 215 159 270 973 1649 989
1675 10 17 22 37 26 45 4 8 34 60 67 115 107 181 249 419 266 450 45 76 117
199 131 223 127 213 269 457 269 463 0 5 4 9 8 9 4 0 13 12 20 28 7 15 18 36
25 47 10 17 65 109 97 165 5 8 50 84 100 169 86 146 90 155 76 177 -9 12 -24
38 -35 56 -10 18 -82 140 -160 272 -77 131 -141 241 -141 244 0 3 -6 13 -14
21 -7 9 -25 36 -38 61 -14 25 -61 106 -105 180 -185 313 -417 706 -427 725 -6
11 -19 31 -27 45 -28 43 -209 351 -209 355 0 2 -35 61 -78 132 -68 112 -133
221 -208 352 -33 58 -277 471 -382 645 -52 88 -102 174 -112 190 -9 17 -39 67
-65 111 -26 44 -57 96 -68 115 -29 53 -243 415 -292 495 -23 39 -97 165 -165
280 -68 116 -156 265 -197 333 -40 68 -73 126 -73 129 0 2 -8 17 -19 31 -10
15 -28 43 -38 62 -11 19 -100 170 -198 335 -98 165 -184 312 -192 328 -17 32
-24 33 -39 10z"/>
<path d="M3422 7073 c-55 -93 -109 -184 -120 -203 -10 -19 -48 -82 -82 -140
-34 -58 -70 -118 -80 -135 -9 -16 -122 -208 -250 -425 -128 -217 -240 -409
-250 -426 -10 -17 -37 -62 -59 -99 -23 -37 -41 -69 -41 -70 0 -2 -33 -59 -74
-127 -40 -68 -158 -267 -261 -443 -103 -176 -233 -396 -288 -490 -55 -93 -144
-244 -197 -335 -264 -448 -336 -571 -376 -638 -24 -40 -44 -74 -44 -76 0 -2
-19 -35 -42 -72 -23 -38 -63 -105 -88 -149 -26 -44 -116 -197 -200 -340 -84
-143 -168 -285 -185 -315 -18 -30 -90 -154 -162 -275 -161 -273 -194 -329
-254 -433 l-48 -82 3199 0 3199 0 99 168 c55 92 109 183 120 202 11 19 49 85
84 145 36 61 237 403 447 760 211 358 420 713 466 790 45 77 129 219 185 315
57 96 170 290 253 430 83 140 158 269 167 285 19 32 264 450 279 475 5 8 84
141 174 295 91 154 299 507 463 785 163 278 333 567 377 643 44 75 83 137 86
137 5 0 280 -460 451 -755 14 -24 97 -165 185 -314 88 -149 167 -284 176 -299
9 -15 87 -148 174 -297 86 -148 168 -287 182 -308 13 -21 33 -54 45 -75 11
-20 201 -343 421 -717 220 -374 409 -696 421 -716 50 -87 313 -532 328 -557 9
-15 23 -38 31 -52 7 -14 90 -155 184 -315 94 -159 181 -308 193 -330 12 -22
31 -52 41 -67 11 -14 19 -28 19 -31 0 -3 23 -42 50 -87 28 -45 50 -84 50 -86
0 -3 14 -25 30 -49 17 -24 30 -45 30 -48 0 -4 117 -203 169 -289 l23 -38 3199
0 3199 0 -19 33 c-10 17 -98 167 -195 331 -97 164 -176 300 -176 303 0 2 -15
27 -34 56 -19 28 -278 468 -576 977 -298 509 -552 941 -565 960 -12 19 -33 54
-46 78 -27 48 -130 223 -359 612 -184 311 -555 942 -580 985 -9 17 -70 120
-135 230 -141 238 -113 191 -310 527 -88 150 -171 290 -184 311 l-25 37 -6397
0 -6398 0 -99 -167z"/>
</g>
</svg>
